<?xml version="1.0" encoding="utf-8"?>
<svg viewBox="0 0 128 128" preserveAspectRatio="xMinYMin" xmlns="http://www.w3.org/2000/svg">
  <g transform="matrix(1, 0, 0, 1, 10.120097, 4.257011)">
    <path class="st0" d="M 95.25 44.286 C 101.75 48.886 108.05 55.886 107.75 59.686 C 107.65 61.886 99.55 69.886 90.55 72.986 C 92.65 80.686 92.85 90.086 90.25 92.786 C 88.95 94.286 78.65 95.286 69.95 92.386 C 70.45 90.686 70.85 88.586 70.85 86.086 C 71.15 75.786 84.45 69.086 84.45 51.086 C 84.45 34.086 67.65 21.686 53.85 21.686 C 40.05 21.686 23.25 34.086 23.25 51.086 C 23.25 69.186 36.55 75.886 36.85 86.086 C 36.95 88.986 37.35 91.286 38.05 93.086 C 31.15 95.986 22.95 97.486 20.05 95.586 C 18.25 94.386 15.35 83.386 17.05 74.086 C 9.35 71.986 1.05 67.486 0.05 63.886 C -0.55 61.786 4.25 51.486 11.65 45.486 C 6.95 38.986 3.55 30.286 5.05 26.786 C 5.95 24.786 16.25 19.986 25.75 20.086 C 26.45 12.186 29.45 3.286 32.75 1.586 C 34.75 0.586 45.65 3.586 52.85 9.786 C 58.45 4.186 66.45 -0.714 70.15 0.086 C 72.25 0.586 78.75 9.886 80.35 19.286 C 88.25 18.586 97.55 19.986 99.85 22.986 C 101.15 24.786 100.15 36.086 95.25 44.286 Z" style="fill: rgb(231, 83, 0);"/>
    <path class="st1" d="M 64.75 63.286 C 71.35 63.986 78.05 58.586 84.85 62.486 C 87.35 63.886 89.35 68.086 90.65 72.986 C 87.55 74.086 84.35 74.586 81.35 74.086 C 75.75 73.086 69.15 67.886 64.75 63.286 Z M 38.45 56.486 C 34.55 61.886 35.85 70.386 29.05 74.286 C 26.55 75.686 21.95 75.386 17.05 74.086 C 17.65 70.886 18.85 67.786 20.75 65.486 C 24.35 61.086 32.15 57.886 38.45 56.486 Z M 39.25 45.786 C 32.85 47.386 28.35 54.686 20.65 53.386 C 17.75 52.886 14.45 49.686 11.55 45.586 C 14.05 43.486 16.95 41.986 19.95 41.386 C 25.55 40.286 33.55 42.886 39.25 45.786 Z M 46.75 38.086 C 40.75 35.186 32.65 37.886 27.65 31.886 C 25.75 29.686 25.35 25.086 25.75 20.086 C 29.05 20.086 32.25 20.786 34.85 22.286 C 39.85 25.086 44.25 32.186 46.75 38.086 Z M 57.45 37.086 C 54.75 31.086 46.75 27.886 46.75 20.086 C 46.75 17.186 49.35 13.386 52.85 9.786 C 55.35 11.886 57.35 14.486 58.45 17.386 C 60.45 22.586 59.25 30.986 57.45 37.086 Z M 69.15 53.486 C 74.65 49.786 76.35 41.386 84.05 39.986 C 86.95 39.486 91.15 41.386 95.25 44.286 C 93.55 47.086 91.45 49.586 88.75 51.086 C 83.95 53.986 75.55 54.286 69.15 53.486 Z M 80.35 19.286 C 80.85 22.486 80.85 25.786 79.75 28.686 C 77.85 33.986 71.65 39.586 66.25 43.186 C 68.05 36.786 63.95 29.286 68.95 23.286 C 70.85 20.986 75.35 19.786 80.35 19.286 Z" style="clip-rule: evenodd; fill: rgb(173, 68, 29); fill-rule: evenodd;"/>
    <path class="st2" d="M 42.35 97.386 C 40.95 96.886 39.75 96.086 39.05 94.986 C 37.95 92.986 36.95 90.286 36.85 86.086 C 36.55 75.786 23.25 69.086 23.25 51.086 C 23.25 34.086 40.05 21.686 53.85 21.686 C 67.65 21.686 84.45 34.086 84.45 51.086 C 84.45 69.186 71.15 75.886 70.85 86.086 C 70.75 90.486 69.75 93.286 68.45 95.186 C 67.75 96.186 66.75 96.886 65.55 97.386 C 65.45 97.386 65.35 97.386 65.25 97.386 L 42.35 97.386 L 42.35 97.386 Z" style="clip-rule: evenodd; fill: rgb(255, 210, 108); fill-rule: evenodd;"/>
    <path class="st3" d="M 59.85 55.486 C 60.35 54.786 63.65 55.686 66.65 54.686 C 67.55 54.386 68.35 53.986 69.05 53.486 C 64.25 52.886 60.55 51.786 60.35 50.686 C 60.25 49.886 63.35 48.386 65.05 45.686 C 65.55 44.886 65.85 44.086 66.15 43.186 C 62.05 45.886 58.55 47.286 57.75 46.586 C 57.15 45.986 58.65 42.886 58.15 39.686 C 58.05 38.786 57.75 37.886 57.35 37.086 C 55.95 41.686 54.15 45.186 53.05 45.086 C 52.25 44.986 51.35 41.686 48.95 39.586 C 48.25 38.986 47.45 38.486 46.65 38.086 C 48.55 42.586 49.35 46.286 48.55 46.986 C 47.85 47.486 45.05 45.486 41.85 45.386 C 40.95 45.386 40.05 45.486 39.15 45.686 C 43.45 47.886 46.55 50.186 46.35 51.286 C 46.15 52.086 42.75 52.386 40.25 54.386 C 39.55 54.986 38.95 55.586 38.35 56.386 C 43.05 55.286 46.95 55.086 47.45 56.086 C 47.75 56.786 45.35 59.286 44.75 62.386 C 44.55 63.286 44.55 64.186 44.55 65.086 C 47.45 61.186 50.25 58.586 51.35 58.986 C 52.05 59.286 51.75 62.786 53.35 65.586 C 53.85 66.386 54.35 67.086 54.95 67.786 C 54.65 62.986 55.15 59.086 56.25 58.786 C 57.05 58.586 59.05 61.386 62.05 62.586 C 62.95 62.886 63.85 63.086 64.65 63.186 C 61.35 59.686 59.35 56.486 59.85 55.486 Z" style="fill: rgb(255, 255, 255);"/>
    <path class="st4" d="M 67.15 91.286 C 66.25 90.886 65.45 90.486 64.65 89.986 C 63.25 89.086 61.95 87.986 60.85 86.786 C 57.15 82.486 55.45 74.286 55.05 67.886 C 59.65 72.686 68.25 72.886 70.95 80.186 C 71.05 80.386 71.15 80.686 71.15 80.886 L 71.55 82.486 C 71.15 83.686 70.95 84.886 70.95 86.086 C 70.85 88.686 70.55 90.786 69.95 92.486 C 69.05 92.186 68.15 91.786 67.15 91.286 Z M 44.65 65.186 C 45.15 71.786 51.55 77.486 48.85 84.886 C 48.05 86.986 45.75 88.986 42.65 90.786 C 41.65 91.386 40.65 91.886 39.55 92.386 C 38.95 92.686 38.45 92.886 38.05 93.086 C 37.35 91.286 36.95 88.986 36.85 86.086 C 36.85 85.886 36.85 85.586 36.85 85.386 C 36.85 84.586 36.85 83.986 36.95 83.386 C 36.95 82.786 36.95 82.086 37.05 81.486 C 37.75 76.086 41.25 69.786 44.65 65.186 Z M 77.35 33.086 C 74.55 36.986 70.15 40.586 66.25 43.186 C 67.85 37.586 64.85 30.986 67.65 25.386 C 71.25 27.286 74.65 29.886 77.35 33.086 Z M 69.15 53.486 C 74.15 50.086 76.05 42.786 82.25 40.486 C 83.65 43.686 84.55 47.286 84.55 51.086 C 84.55 51.686 84.55 52.286 84.55 52.886 C 79.75 53.986 73.85 54.086 69.15 53.486 Z M 57.45 37.086 C 55.05 31.786 48.55 28.686 47.05 22.586 C 49.35 21.986 51.65 21.686 53.85 21.686 C 55.65 21.686 57.55 21.886 59.45 22.286 C 59.75 27.086 58.75 32.686 57.45 37.086 Z M 46.75 38.086 C 41.55 35.586 34.65 37.286 29.65 33.786 C 32.35 30.586 35.55 27.886 39.15 25.786 C 42.35 29.286 45.05 33.986 46.75 38.086 Z M 39.25 45.786 C 33.65 47.186 29.45 52.986 23.35 53.486 C 23.25 52.686 23.25 51.886 23.25 51.086 C 23.25 47.586 23.95 44.286 25.25 41.286 C 29.95 41.786 35.15 43.686 39.25 45.786 Z M 38.45 56.486 C 34.95 61.286 35.65 68.686 30.85 72.886 C 28.75 69.686 26.55 66.186 25.05 61.786 C 28.95 59.286 34.05 57.486 38.45 56.486 Z M 64.75 63.286 C 70.65 63.886 76.75 59.586 82.85 61.586 C 81.35 65.886 79.25 69.486 77.15 72.686 C 72.65 70.586 68.05 66.786 64.75 63.286 Z" style="clip-rule: evenodd; fill: rgb(255, 198, 86); fill-rule: evenodd;"/>
    <path class="st5" d="M 65.35 107.586 L 65.35 109.086 C 66.45 109.086 67.35 110.086 67.35 111.286 C 67.35 112.486 66.45 113.486 65.35 113.486 L 57.85 115.486 C 58.35 115.886 58.65 116.486 58.65 117.286 C 58.65 118.486 57.75 119.486 56.65 119.486 L 51.25 119.486 C 50.15 119.486 49.25 118.486 49.25 117.286 C 49.25 116.386 49.75 115.686 50.35 115.286 L 42.45 113.486 C 41.35 113.486 40.45 112.486 40.45 111.286 C 40.45 110.086 41.35 109.086 42.45 109.086 L 60.85 109.086 L 60.85 108.586 L 42.45 107.486 C 41.35 107.486 40.45 106.486 40.45 105.286 C 40.45 104.086 41.35 103.086 42.45 103.086 L 60.85 103.086 L 60.85 102.586 L 42.45 101.486 C 41.35 101.486 40.45 100.486 40.45 99.286 C 40.45 98.086 41.35 97.086 42.45 97.086 L 65.35 97.086 C 66.45 97.086 67.35 98.086 67.35 99.286 C 67.35 100.486 66.45 101.486 65.35 101.486 L 65.15 101.486 L 65.15 102.986 L 65.35 102.986 C 66.45 102.986 67.35 103.986 67.35 105.186 C 67.35 106.586 66.45 107.586 65.35 107.586 Z" style="fill: rgb(0, 117, 141);"/>
  </g>
</svg>