<?xml version="1.0" encoding="utf-8"?>
<svg viewBox="0 0 280 80" preserveAspectRatio="xMinYMin" xmlns="http://www.w3.org/2000/svg">
  <path class="st6" d="M 236.7 18 C 237.5 16.1 240.7 12.8 243.7 12.8 C 244.4 12.8 245.8 13 245.8 13 L 245.8 19.5 C 245.8 19.5 244.2 19.1 243.6 19.1 C 239.1 19.1 236.9 23.7 236.9 28.4 L 236.9 39.5 L 230.4 39.5 L 230.4 18.6 C 230.4 18.5 230.4 18.4 230.4 18.4 C 230.4 18.4 230.3 18.4 230.2 18.4 L 226.8 18.4 L 226.8 13 L 232.7 13 C 234.9 13 236.8 14.1 236.8 16.2 C 236.8 16.5 236.7 17.8 236.7 18 Z M 144.7 16.4 C 146.3 14.5 149.2 12.5 153.5 12.5 C 159.8 12.5 162.6 16.2 162.6 22.9 L 162.6 33.4 L 162.6 34.1 C 162.6 34.2 162.6 34.3 162.6 34.3 C 162.6 34.3 162.7 34.3 162.8 34.3 L 166 34.3 L 166 39.7 L 160.1 39.7 C 157.9 39.7 156.1 38.6 156.1 36.5 L 156.1 35.1 L 156.1 24 C 156.1 20.5 155.5 18.6 152.3 18.6 C 147.9 18.6 144.9 22.6 144.9 27.2 L 144.9 29.9 L 144.9 34.2 L 144.9 39.6 L 138.4 39.6 L 138.4 34.2 L 138.4 30.8 L 138.4 18.6 C 138.4 18.5 138.4 18.4 138.4 18.4 C 138.4 18.4 138.3 18.4 138.2 18.4 L 135 18.4 L 135 13 L 140.8 13 C 143.1 13 144.6 14.2 144.7 16.4 Z M 19.4 10.1 C 20.9 10.1 21.5 11.1 21.5 12.4 L 21.5 16.2 L 17.8 16.2 L 17.8 13.7 L 14.4 13.7 L 14.4 32.8 L 10.3 32.8 L 10.3 13.7 L 6.9 13.7 L 6.9 16.2 L 3.2 16.2 L 3.2 12.6 C 3.2 11.3 3.8 10.1 5.3 10.1 L 19.4 10.1 Z M 28.2 18.1 C 29.3 16.9 31.1 15.8 33.4 15.8 C 37.4 15.8 39.3 18.1 39.3 22.3 L 39.3 29.4 L 41.7 29.4 L 41.7 32.8 L 35.3 32.8 L 35.3 23 C 35.3 20.9 34.9 19.7 32.9 19.7 C 30.2 19.7 28.3 22 28.3 25 L 28.3 32.8 L 24.3 32.8 L 24.3 13.5 L 22.9 13.5 L 22.9 10.1 L 28.4 10.1 L 28.4 18.1 Z M 51.3 33.1 C 46.1 33.1 42.6 29.3 42.6 24.5 C 42.6 19.3 46.2 15.9 50.9 15.9 C 55.7 15.9 58.1 19.5 58.1 23.7 C 58.1 24.1 57.9 25.4 57.9 25.4 L 46.7 25.4 C 47.1 28.2 49.1 29.6 51.5 29.6 C 53.4 29.6 54.9 28.8 56.3 27.6 L 58.1 30.7 C 58.1 30.7 57.6 31.1 57.3 31.4 C 55.6 32.4 53.5 33.1 51.3 33.1 Z M 50.8 19.3 C 49 19.3 47.5 20.4 46.9 22.4 L 53.9 22.4 C 53.7 20.2 52.3 19.3 50.8 19.3 Z M 85.7 39.7 C 74.7 39.7 66.8 31.3 66.8 20.6 C 66.8 9.9 74.9 1.9 85.5 1.9 C 90 1.9 99.6 3.5 99.6 9.7 L 99.6 14.8 L 93.3 14.8 L 93.3 11.2 C 93.3 8.6 87.5 7.9 85.7 7.9 C 78.7 7.9 73.6 13 73.6 20.4 C 73.6 28.2 78.9 33.6 86 33.6 C 93.6 33.6 97.1 28.5 97.1 28.5 L 100.3 33 C 100.3 33 96.3 39.7 85.7 39.7 Z M 118 40.2 C 110.1 40.2 103.7 34.3 103.7 26.2 C 103.7 18.1 110.1 12.3 118 12.3 C 125.9 12.3 132.3 18.1 132.3 26.2 C 132.3 34.4 125.9 40.2 118 40.2 Z M 118 18.2 C 113.8 18.2 110.3 21.5 110.3 26.2 C 110.3 31 113.8 34.3 118 34.3 C 122.2 34.3 125.7 31 125.7 26.2 C 125.7 21.5 122.2 18.2 118 18.2 Z M 182.7 40.2 C 175.1 40.2 168.4 34.9 168.4 26.3 C 168.4 18.2 174.6 12.3 182.5 12.3 C 186.3 12.3 193.1 13.8 193.1 18.8 L 193.1 21.6 L 187.1 21.6 L 187.1 20.2 C 187.1 18.7 183.6 18.2 182.6 18.2 C 178.1 18.2 175 21.3 175 26.2 C 175 31.4 178.6 34.3 182.9 34.3 C 186.5 34.3 188.6 32.7 191.2 30.6 L 193.8 35.6 C 190.6 38.5 187 40.2 182.7 40.2 Z M 209.9 40.2 C 202 40.2 195.6 34.3 195.6 26.2 C 195.6 18.1 202 12.3 209.9 12.3 C 217.8 12.3 224.2 18.1 224.2 26.2 C 224.2 34.4 217.8 40.2 209.9 40.2 Z M 209.9 18.2 C 205.7 18.2 202.2 21.5 202.2 26.2 C 202.2 31 205.7 34.3 209.9 34.3 C 214.1 34.3 217.6 31 217.6 26.2 C 217.6 21.5 214.1 18.2 209.9 18.2 Z M 267.1 14.9 L 267.1 8.6 L 264.1 8.6 L 264.1 3.2 L 273.6 3.2 L 273.6 34.1 C 273.6 34.2 273.6 34.3 273.6 34.3 C 273.6 34.3 273.7 34.3 273.8 34.3 L 277.2 34.3 L 277.2 39.7 L 271.4 39.7 C 269.2 39.7 267.9 38.7 267.5 37.1 C 265.6 39.2 262.8 40.2 259.9 40.2 C 252.6 40.2 248.1 34.3 248.1 26.3 C 248.1 18 253 12.4 260.3 12.4 C 262.6 12.4 265.2 13.2 267.1 14.9 Z M 261 18.3 C 257.6 18.3 254.7 21 254.7 26.3 C 254.7 31.4 257.4 34.4 260.9 34.4 C 264.1 34.4 267.2 32.2 267.2 26.4 C 267.2 21.9 265 18.3 261 18.3 Z M 74.4 55.7 C 75.9 53.9 78.6 52 82.7 52 C 88.6 52 91.3 55.5 91.3 61.8 L 91.3 71.7 L 91.3 72.3 C 91.3 72.4 91.3 72.5 91.3 72.5 C 91.3 72.5 91.4 72.5 91.5 72.5 L 95.1 72.5 L 95.1 77.6 L 89 77.6 C 86.9 77.6 85.2 76.6 85.2 74.5 L 85.2 73.2 L 85.2 62.8 C 85.2 59.5 84.6 57.7 81.6 57.7 C 77.5 57.7 74.6 61.5 74.6 65.9 L 74.6 68.4 L 74.6 72.4 L 74.6 77.5 L 68.5 77.5 L 68.5 72.4 L 68.5 69.2 L 68.5 57.8 C 68.5 57.7 68.5 57.6 68.5 57.6 C 68.5 57.6 68.4 57.6 68.3 57.6 L 65.3 57.6 L 65.3 52.5 L 70.7 52.5 C 73 52.5 74.3 53.6 74.4 55.7 Z M 50.5 78.1 C 43.1 78.1 37.1 72.6 37.1 65 C 37.1 57.4 43.1 52 50.5 52 C 57.9 52 63.9 57.5 63.9 65 C 63.9 72.6 57.9 78.1 50.5 78.1 Z M 50.5 57.5 C 46.5 57.5 43.3 60.6 43.3 65 C 43.3 69.5 46.6 72.6 50.5 72.6 C 54.4 72.6 57.7 69.5 57.7 65 C 57.7 60.6 54.4 57.5 50.5 57.5 Z M 105.7 78.1 C 99.9 78.1 96.1 73.5 96.1 73.5 L 99.5 69.4 C 99.5 69.4 101.9 72.8 105.9 72.8 C 108.5 72.8 109.8 71.8 109.8 70.6 C 109.8 68.6 106 67.6 104.5 67.1 C 101.2 65.9 96.7 64.1 96.7 59.2 C 96.7 53.8 102 51.9 106.1 51.9 C 109.3 51.9 115 53.2 115 57.4 L 115 59.9 L 109.5 59.9 L 109.5 58.7 C 109.5 58.1 108.5 57.1 106.2 57.1 C 104 57.1 102.8 58 102.8 59.1 C 102.8 61 106.3 62 107.7 62.4 C 111.2 63.5 116 65.2 116 70.2 C 115.9 75.5 111.2 78.1 105.7 78.1 Z M 132.7 78.1 C 125.3 78.1 119.3 72.6 119.3 65 C 119.3 57.4 125.3 52 132.7 52 C 140.1 52 146.1 57.5 146.1 65 C 146.1 72.6 140.1 78.1 132.7 78.1 Z M 132.7 57.5 C 128.7 57.5 125.5 60.6 125.5 65 C 125.5 69.5 128.8 72.6 132.7 72.6 C 136.6 72.6 139.9 69.5 139.9 65 C 139.9 60.6 136.6 57.5 132.7 57.5 Z M 157.8 57.2 C 158.5 55.4 161.6 52.3 164.4 52.3 C 165.1 52.3 166.4 52.5 166.4 52.5 L 166.4 58.6 C 166.4 58.6 164.9 58.2 164.3 58.2 C 160.1 58.2 158 62.5 158 67 L 158 77.5 L 151.9 77.5 L 151.9 57.8 C 151.9 57.7 151.9 57.6 151.9 57.6 C 151.9 57.6 151.8 57.6 151.7 57.6 L 148 57.6 L 148 52.5 L 154.1 52.5 C 156.2 52.5 157.9 53.5 157.9 55.6 C 157.8 55.8 157.8 57 157.8 57.2 Z M 181 77.7 C 177.9 77.7 171.3 76.7 171.3 68.2 L 171.3 57.6 L 168 57.6 L 168 52.5 L 171.4 52.5 L 171.4 46.1 L 177.4 46.1 L 177.4 52.5 L 183 52.5 L 183 57.6 L 177.4 57.6 L 177.4 67.7 C 177.4 71.8 180 72.3 181.6 72.3 C 182.2 72.3 183.5 72.2 183.5 72.2 L 183.5 77.5 C 183.4 77.5 182.1 77.7 181 77.7 Z M 196.7 49.5 L 190.4 49.5 L 190.4 43.3 L 196.7 43.3 L 196.7 49.5 Z M 199.6 77.5 L 193.1 77.5 C 191.6 77.5 190.4 76.4 190.4 73.7 L 190.4 57.6 L 186.5 57.6 L 186.5 52.5 L 192.8 52.5 C 196.3 52.5 196.4 55 196.4 56.3 L 196.4 72.4 L 199.5 72.4 L 199.5 77.5 Z M 221.7 74.4 C 220.2 76.1 217.6 78 213.6 78 C 208 78 205.1 74.8 205.1 68.2 L 205.1 57.6 L 201.9 57.6 L 201.9 52.5 L 208.2 52.5 C 210 52.5 211.2 53.9 211.2 55.3 L 211.2 67.3 C 211.2 70.5 211.8 72.3 214.8 72.3 C 218.8 72.3 221.6 68.4 221.6 64 L 221.6 52.4 L 227.7 52.4 L 227.7 72.3 C 227.7 72.5 227.7 72.5 227.9 72.5 L 230.8 72.5 L 230.8 77.5 L 225.5 77.5 C 223.2 77.5 221.8 76.4 221.7 74.4 Z M 243 55.6 C 244.8 53.6 247.5 51.9 250.5 51.9 C 254 51.9 256.4 53.3 257.6 56.3 C 259.3 53.8 262.3 51.9 265.8 51.9 C 271.5 51.9 274.2 55.4 274.2 61.7 L 274.2 72.4 L 277.1 72.4 L 277.1 77.5 L 268.1 77.5 L 268.1 62.7 C 268.1 59.4 267.5 57.6 264.8 57.6 C 261.1 57.6 258.7 61.4 258.7 65.9 L 258.7 69.8 L 258.7 77.5 L 252.6 77.5 L 252.6 62.7 C 252.6 59.6 252.1 57.6 249.3 57.6 C 245.6 57.6 243.1 61.6 243.1 66.1 L 243.1 77.5 L 237 77.5 L 237 72.4 L 237 69.7 L 237 57.7 C 237 57.6 237 57.6 237 57.6 C 237 57.6 236.9 57.6 236.8 57.6 L 233.1 57.6 L 233.1 52.5 L 239.2 52.5 C 241.5 52.5 242.9 53.6 243 55.6 Z M 20.5 77.9 C 10.2 77.9 2.8 70 2.8 60 C 2.8 50 10.4 42.5 20.3 42.5 C 24.5 42.5 33.5 44 33.5 49.8 L 33.5 54.6 L 27.6 54.6 L 27.6 51.3 C 27.6 48.8 22.1 48.2 20.5 48.2 C 14 48.2 9.2 52.9 9.2 59.9 C 9.2 67.2 14.1 72.3 20.8 72.3 C 28 72.3 31.2 67.5 31.2 67.5 L 34.2 71.7 C 34.2 71.7 30.4 77.9 20.5 77.9 Z" style="clip-rule: evenodd; fill-rule: evenodd; fill: rgb(255, 255, 255);"/>
</svg>