# ProBuilder 4.0.5
# https://unity3d.com/unity/features/worldbuilding/probuilder
# 1/26/2020 5:09:16 PM

mtllib ./Avatar_PB.mtl
o Avatar_PB

g Avatar
v 0 0 0.1523723
v -0.04496523 -0.03506953 0.1611397
v -0.06736676 0.06736672 0.07961315
v 0.03506954 0.04496521 0.1611397
v -0.125 -0.03506953 0.1611397
v -0.125 0.06736672 0.07961315
v -0.125 0.125 0.07961315
v -0.06736676 0.125 0.07961315
v 0.03506954 0.125 0.1611397
v -0.2050348 -0.03506953 0.1611397
v -0.1826333 0.06736672 0.07961315
v -0.25 0 0.1523723
v -0.2850695 0.04496521 0.1611397
v -0.2850695 0.125 0.1611397
v -0.1826333 0.125 0.07961315
v -0.1826333 0.1826333 0.07961315
v -0.125 0.1826333 0.07961315
v -0.2850695 0.2050348 0.1611397
v -0.25 0.25 0.1523723
v -0.2050348 0.2850695 0.1611397
v -0.125 0.2850695 0.1611397
v -0.06736676 0.1826333 0.07961315
v 0.03506954 0.2050348 0.1611397
v -0.04496523 0.2850695 0.1611397
v 0 0.25 0.1523723
v -0.25 0 0.0898723
v -0.2850695 0.04496521 0.08110492
v -0.172332 0.07766807 -0.0753693
v -0.172332 0.101334 -0.0753693
v -0.172332 0.125 -0.0753693
v -0.2850695 0.125 0.08110492
v -0.2133743 0.03662568 -0.1470257
v -0.2144822 0.08025891 -0.1378693
v -0.2133743 0.03662568 -0.1912129
v -0.2133743 0.08081287 -0.1912129
v -0.3284395 0.125 -0.2199792
v -0.3284395 0.125 -0.1182594
v -0.2144822 0.1697411 -0.1378693
v -0.172332 0.148666 -0.0753693
v -0.2133743 0.1691871 -0.1912129
v -0.2133743 0.2133743 -0.1912129
v -0.2133743 0.2133743 -0.1470257
v -0.172332 0.1723319 -0.0753693
v -0.2850695 0.2050348 0.08110492
v -0.25 0.25 0.0898723
v -0.125 -0.047425 -0.2122256
v -0.125 0.0625 -0.2003693
v -0.1691871 0.08081287 -0.1912129
v -0.1691871 0.03662568 -0.1912129
v -0.125 0.125 -0.2003693
v -0.1875 0.125 -0.2003693
v -0.03662571 0.03662568 -0.1912129
v -0.03662571 0.08081287 -0.1912129
v -0.08081286 0.08081287 -0.1912129
v -0.08081286 0.03662568 -0.1912129
v 0.0784395 0.125 -0.2199792
v -0.0625 0.125 -0.2003693
v -0.03662571 0.1691871 -0.1912129
v -0.08081286 0.1691871 -0.1912129
v -0.03662571 0.2133743 -0.1912129
v -0.08081286 0.2133743 -0.1912129
v -0.125 0.297425 -0.2122256
v -0.125 0.1875 -0.2003693
v -0.1691871 0.1691871 -0.1912129
v -0.1691871 0.2133743 -0.1912129
v -0.07766805 0.07766807 -0.0753693
v -0.07766805 0.101334 -0.0753693
v -0.03551777 0.08025891 -0.1378693
v -0.03662571 0.03662568 -0.1470257
v -0.07766805 0.125 -0.0753693
v 0.0784395 0.125 -0.1182594
v 0.03506954 0.04496521 0.08110492
v 0 0 0.0898723
v 0.03506954 0.125 0.08110492
v 0.03506954 0.2050348 0.08110492
v 0 0.25 0.0898723
v -0.07766805 0.1723319 -0.0753693
v -0.07766805 0.148666 -0.0753693
v -0.03551777 0.1697411 -0.1378693
v -0.03662571 0.2133743 -0.1470257
v -0.125 0.1723319 -0.0753693
v -0.101334 0.1723319 -0.0753693
v -0.04496523 0.2850695 0.08110492
v -0.125 0.2850695 0.08110492
v -0.148666 0.1723319 -0.0753693
v -0.2050348 0.2850695 0.08110492
v -0.1691871 0.2133743 -0.1470257
v -0.125 0.297425 -0.126013
v -0.08081286 0.2133743 -0.1470257
v -0.125 -0.047425 -0.126013
v -0.08081286 0.03662568 -0.1470257
v -0.125 0.07766807 -0.0753693
v -0.101334 0.07766807 -0.0753693
v -0.1691871 0.03662568 -0.1470257
v -0.148666 0.07766807 -0.0753693
v -0.2050348 -0.03506953 0.08110492
v -0.125 -0.03506953 0.08110492
v -0.04496523 -0.03506953 0.08110492

vt 0.008745053 0.008716302
vt -0.03564287 -0.02564621
vt -0.0626865 0.07203177
vt 0.04425997 0.05399384
vt -0.1155457 -0.02538301
vt -0.1202247 0.07222129
vt -0.1202247 0.1297599
vt -0.0626865 0.1295704
vt 0.04425997 0.1338971
vt -0.1954485 -0.02511982
vt -0.177763 0.07241082
vt -0.2408428 0.00953843
vt -0.2753514 0.05504662
vt -0.2753514 0.1349499
vt -0.177763 0.1299494
vt -0.177763 0.187488
vt -0.1202247 0.1872985
vt -0.2753514 0.2148532
vt -0.2408428 0.2591277
vt -0.1954485 0.2944933
vt -0.1155457 0.2942301
vt -0.0626865 0.187109
vt 0.04425997 0.2138004
vt -0.03564287 0.2939669
vt 0.008745053 0.2583056
vt 0.151779 0.002276248
vt 0.08927915 0.0022749
vt 0.08042862 0.04755691
vt 0.1604632 0.04755863
vt -0.07577779 0.07923005
vt -0.07577779 0.102895
vt -0.07577779 0.12656
vt 0.08042862 0.1275884
vt 0.1604632 0.1275901
vt -0.1475313 0.03856096
vt -0.1383776 0.08220265
vt -0.1917184 0.03856001
vt -0.1917184 0.08274537
vt -0.2207575 0.1279762
vt -0.119038 0.1279784
vt -0.1383776 0.1716811
vt -0.07577779 0.150225
vt -0.1917184 0.171116
vt -0.1917184 0.2153013
vt -0.1475313 0.2153023
vt -0.07577779 0.17389
vt 0.08042862 0.2076199
vt 0.1604632 0.2076216
vt 0.08927915 0.2522646
vt 0.151779 0.2522659
vt 0.1295189 -0.05341662
vt 0.1292648 0.05680325
vt 0.1732456 0.07539841
vt 0.1732456 0.03122941
vt 0.1292648 0.1192775
vt 0.1917505 0.1193159
vt 0.3330778 0.1188401
vt 0.2174226 0.07542558
vt 0.2174226 0.03125658
vt 0.04071463 0.03114791
vt 0.04071463 0.07531691
vt 0.08489164 0.07534407
vt 0.08489164 0.03117508
vt -0.07370774 0.1185899
vt 0.0667792 0.1192391
vt 0.04071463 0.1636548
vt 0.08489164 0.163682
vt 0.04071463 0.2078238
vt 0.08489164 0.2078509
vt 0.1295189 0.2912914
vt 0.1292648 0.1817518
vt 0.1732456 0.1637363
vt 0.1732456 0.2079053
vt 0.2174226 0.2079324
vt 0.2174226 0.1637634
vt 0.07398041 0.07780898
vt 0.07398041 0.1014749
vt 0.1372179 0.08032654
vt 0.1463532 0.03669566
vt 0.07398041 0.1251408
vt 0.1196316 0.1248635
vt 0.2213353 0.1248667
vt 0.1905335 0.08088417
vt 0.1905335 0.03669706
vt -0.1523484 -4.823377E-06
vt -0.1604926 0.04489743
vt -0.08047039 0.04489996
vt -0.08985817 -2.844926E-06
vt -0.1604926 0.1249321
vt -0.08047039 0.1249346
vt -0.1604926 0.2049668
vt -0.08047039 0.2049693
vt -0.1523484 0.2499948
vt -0.08985817 0.2499968
vt 0.07398041 0.1724727
vt 0.07398041 0.1488068
vt 0.1372179 0.1698086
vt 0.1463532 0.213444
vt 0.1905335 0.2134454
vt 0.1905335 0.1692583
vt 0.1261693 -0.07328796
vt 0.1025039 -0.07328602
vt 0.04690322 0.08454608
vt 0.1269361 0.0845395
vt 0.07883845 -0.07328407
vt 0.001700489 0.09289201
vt 0.001700489 0.1553874
vt 0.04690322 0.164575
vt 0.1269361 0.1645684
vt 0.1735002 -0.07329186
vt 0.1498347 -0.07328992
vt 0.2069691 0.0845329
vt 0.2516947 0.09287142
vt 0.2069691 0.1645618
vt 0.2516947 0.1553668
vt 0.2148207 -0.1886335
vt 0.1706346 -0.1886299
vt 0.1706346 -0.144446
vt 0.2148207 -0.1444496
vt 0.1270202 -0.2086199
vt 0.1270202 -0.1224137
vt 0.08226235 -0.1886226
vt 0.08226235 -0.1444387
vt 0.03807622 -0.188619
vt 0.03807622 -0.144435
vt -0.1249304 -0.2125596
vt -0.1249304 -0.1263492
vt -0.08086642 -0.1467617
vt -0.08086642 -0.1909478
vt -0.1251136 -0.07481501
vt -0.1014477 -0.07481476
vt -0.07778174 -0.07481451
vt -0.03667932 -0.1467613
vt -0.03667932 -0.1909473
vt -0.2134277 -0.1909492
vt -0.2134277 -0.1467631
vt -0.1692406 -0.1467627
vt -0.1692406 -0.1909487
vt -0.1724456 -0.0748155
vt -0.1487796 -0.07481525
vt -0.2499997 0.08986741
vt -0.2049832 0.08085071
vt -0.2499997 0.1523658
vt -0.2049832 0.1608834
vt -0.1249485 0.1608843
vt -0.1249485 0.08085155
vt -0.04491381 0.08085238
vt -0.04491381 0.1608851
vt 0 0.1523684
vt 0 0.08987002

vn -0.4209914 0.4209916 0.779581
vn -0.2835401 0.558443 0.779581
vn -0.5584428 0.2835403 0.7795811
vn 0 0.6227254 0.7824404
vn 0 0 1
vn -0.6227252 0 0.7824406
vn -0.03645688 -0.03645688 0.6792085
vn -0.5526673 -0.5526675 0.6237928
vn 0.4797536 0.4797537 0.7346243
vn 0.6227254 0 0.7824405
vn 0.5584429 -0.2835402 0.779581
vn 0.4209915 -0.4209916 0.779581
vn 0.2835401 -0.558443 0.779581
vn 0 -0.6227255 0.7824404
vn 0.03645703 0.03645705 0.6792084
vn 0.5526676 0.5526678 0.6237924
vn -0.4797535 -0.4797537 0.7346244
vn -0.7885307 -0.6149954 0
vn -0.734667 -0.2793218 -0.5166069
vn -0.9050142 0 -0.4253813
vn -0.5643198 -0.5586436 -0.6078326
vn -0.8113471 0 -0.5845647
vn -1 0 0
vn -0.8265119 -0.06817181 0.5545773
vn -0.8239462 -0.1363436 0.550021
vn -0.8290776 0 0.5591336
vn -0.9997799 -0.01048935 -0.01048936
vn -0.9995598 -0.0209787 -0.02097872
vn -0.354718 -0.9348174 -0.01707544
vn -0.3600867 -0.9328232 -0.008537719
vn -0.3654554 -0.9308289 0
vn -0.2600286 -0.4255029 0.7116438
vn -0.2649299 0 0.9642677
vn -0.2551273 -0.8510058 0.4590198
vn -0.5037588 0.3695769 0.6043016
vn -0.17844 0.7391539 0.6494696
vn -0.3632358 0.9316028 -0.008648719
vn -0.3584933 0.9335322 0
vn -0.3679783 0.9296734 -0.01729744
vn -0.9997844 0 -0.02076552
vn -0.9997311 0.01269204 -0.01038276
vn -0.9996778 0.02538408 0
vn -0.8326035 0.07162285 0.5415646
vn -0.867743 0 0.4970133
vn -0.797464 0.1432457 0.586116
vn -0.7061521 0.2883115 -0.5690297
vn -0.6009571 0.5766231 -0.5534948
vn -0.7885307 0.6149954 0
vn -0.294483 0.05293134 -0.9422962
vn -0.1595126 0.1058627 -0.9815034
vn -0.4294534 0 -0.903089
vn -0.1582312 -0.1582312 -0.9471306
vn 0 0 -1
vn -0.3164623 -0.3164623 -0.8942612
vn 0.1363218 -0.1465297 -0.979768
vn 0.06816088 -0.3460567 -0.9089122
vn 0 -0.5455836 -0.8380564
vn -0.06624953 -0.2389142 -0.9657456
vn -0.1324991 -0.2749199 -0.9522936
vn 0 -0.2029085 -0.9791977
vn 0.1014542 -0.1014543 -0.9791977
vn 0.2029085 0 -0.9791977
vn 0.2312549 0.05177964 -0.9696724
vn 0.2596013 0.1035593 -0.9601473
vn -0.06816088 0.3460567 -0.9089122
vn 0 0.5455836 -0.8380564
vn -0.1363218 0.1465297 -0.979768
vn 0.4294534 0 -0.903089
vn 0.294483 -0.05293133 -0.9422962
vn 0.1595127 -0.1058627 -0.9815034
vn 0.1582312 0.1582312 -0.9471306
vn 0.3164623 0.3164623 -0.8942612
vn -0.1014542 0.1014543 -0.9791977
vn -0.2029085 0 -0.9791977
vn 0 0.2029085 -0.9791977
vn -0.2312549 -0.05177962 -0.9696724
vn -0.2596012 -0.1035592 -0.9601473
vn 0.06624953 0.2389142 -0.9657457
vn 0.1324991 0.2749198 -0.9522936
vn 0.8265119 -0.06817175 0.5545774
vn 0.8290775 0 0.5591336
vn 0.8239462 -0.1363435 0.5500211
vn 0.2600286 -0.4255029 0.7116438
vn 0.2649299 0 0.9642677
vn 0.2551273 -0.8510058 0.4590198
vn 0.3654554 -0.9308289 0
vn 0.3600867 -0.9328231 -0.008537695
vn 0.354718 -0.9348174 -0.01707539
vn 0.9997799 -0.01048928 -0.01048929
vn 1 0 0
vn 0.9995598 -0.02097856 -0.02097858
vn 0.7885306 -0.6149956 0
vn 0.8113471 0 -0.5845647
vn 0.7346669 -0.2793219 -0.516607
vn 0.9050142 0 -0.4253814
vn 0.5643197 -0.5586438 -0.6078326
vn 0.7885306 0.6149956 0
vn 0.6009569 0.5766232 -0.5534948
vn 0.706152 0.2883116 -0.5690297
vn 0.5037587 0.3695769 0.6043016
vn 0.17844 0.7391539 0.6494696
vn 0.8326035 0.07162279 0.5415647
vn 0.8677429 0 0.4970134
vn 0.797464 0.1432456 0.586116
vn 0.9996778 0.02538391 0
vn 0.9997311 0.01269195 -0.01038269
vn 0.9997844 0 -0.02076538
vn 0.3632358 0.9316029 -0.008648694
vn 0.3584934 0.9335323 0
vn 0.3679783 0.9296735 -0.01729739
vn 0 0.8113471 -0.5845648
vn 0.2793217 0.7346671 -0.516607
vn 0 0.9050142 -0.4253814
vn 0.5586435 0.5643199 -0.6078326
vn 0.6149952 0.7885308 0
vn 0 1 0
vn -0.2883115 0.7061522 -0.5690298
vn -0.5766229 0.6009573 -0.5534948
vn -0.6149952 0.7885309 0
vn -0.8851355 0.4653335 0
vn -0.7558981 0.2456798 0.6068439
vn -0.3779491 0.5567112 0.5519289
vn 0 0.8677427 0.4970138
vn 0.8851355 0.4653335 0
vn 0.4193095 0.3541984 0.6789468
vn 0 0.3752617 0.9269189
vn 0.8386191 0.3331352 0.4309746
vn 0.8851354 -0.4653336 0
vn 0.4193095 -0.3541985 0.6789468
vn 0 -0.3752618 0.9269189
vn 0.8386189 -0.3331352 0.4309747
vn 0 -0.8677427 0.4970138
vn 0 -1 0
vn -0.377949 -0.5567113 0.5519289
vn -0.7558981 -0.2456799 0.6068439
vn -0.8851354 -0.4653336 0
vn -0.2883115 -0.7061522 -0.5690298
vn -0.5766229 -0.6009573 -0.5534948
vn 0 -0.8113471 -0.5845648
vn -0.6149952 -0.7885309 0
vn 0.6149952 -0.7885308 0
vn 0.2793217 -0.7346671 -0.516607
vn 0 -0.9050142 -0.4253814
vn 0.5586435 -0.5643199 -0.6078326

g Avatar
usemtl ProBuilderDefault
f 4/4/3 3/3/1 2/2/2 1/1/1
f 3/3/4 6/6/4 5/5/4 2/2/4
f 8/8/5 7/7/5 6/6/5 3/3/5
f 9/9/6 8/8/6 3/3/6 4/4/6
f 6/6/4 11/11/4 10/10/4 5/5/4
f 11/11/9 13/13/7 12/12/8 10/10/7
f 15/15/10 14/14/10 13/13/10 11/11/10
f 7/7/5 15/15/5 11/11/5 6/6/5
f 17/17/5 16/16/5 15/15/5 7/7/5
f 16/16/10 18/18/10 14/14/10 15/15/10
f 20/20/13 19/19/12 18/18/11 16/16/12
f 21/21/14 20/20/14 16/16/14 17/17/14
f 23/23/6 22/22/6 8/8/6 9/9/6
f 22/22/5 17/17/5 7/7/5 8/8/5
f 24/24/14 21/21/14 17/17/14 22/22/14
f 25/25/16 24/24/15 22/22/17 23/23/15
f 13/29/18 27/28/18 26/27/18 12/26/18
f 27/28/21 29/31/19 28/30/20 26/27/19
f 31/33/22 30/32/22 29/31/22 27/28/22
f 14/34/23 31/33/23 27/28/23 13/29/23
f 29/31/26 33/36/24 32/35/25 28/30/24
f 33/36/28 35/38/27 34/37/23 32/35/27
f 37/40/31 36/39/30 35/38/29 33/36/30
f 30/32/33 37/40/32 33/36/34 29/31/32
f 39/42/26 38/41/35 37/40/36 30/32/35
f 38/41/39 40/43/37 36/39/38 37/40/37
f 42/45/42 41/44/41 40/43/40 38/41/41
f 43/46/44 42/45/43 38/41/45 39/42/43
f 18/48/23 44/47/23 31/33/23 14/34/23
f 44/47/22 39/42/22 30/32/22 31/33/22
f 45/49/47 43/46/46 39/42/22 44/47/46
f 19/50/48 45/49/48 44/47/48 18/48/48
f 49/54/51 48/53/49 47/52/50 46/51/49
f 48/53/54 51/56/52 50/55/53 47/52/52
f 35/58/57 36/57/56 51/56/55 48/53/56
f 34/59/53 35/58/53 48/53/53 49/54/53
f 55/63/53 54/62/53 53/61/53 52/60/53
f 54/62/60 57/65/58 56/64/59 53/61/58
f 47/52/62 50/55/61 57/65/60 54/62/61
f 46/51/64 47/52/63 54/62/62 55/63/63
f 57/65/67 59/67/65 58/66/66 56/64/65
f 59/67/53 61/69/53 60/68/53 58/66/53
f 63/71/70 62/70/69 61/69/68 59/67/69
f 50/55/53 63/71/71 59/67/72 57/65/71
f 51/56/75 64/72/73 63/71/74 50/55/73
f 64/72/74 65/73/76 62/70/77 63/71/76
f 40/75/53 41/74/53 65/73/53 64/72/53
f 36/57/79 40/75/78 64/72/75 51/56/78
f 69/79/82 68/78/80 67/77/81 66/76/80
f 68/78/85 71/81/83 70/80/84 67/77/83
f 53/83/88 56/82/87 71/81/86 68/78/87
f 52/84/90 53/83/89 68/78/91 69/79/89
f 73/88/92 72/87/92 4/86/92 1/85/92
f 72/87/90 74/90/90 9/89/90 4/86/90
f 67/77/93 70/80/93 74/90/93 72/87/93
f 66/76/95 67/77/94 72/87/96 73/88/94
f 74/90/90 75/92/90 23/91/90 9/89/90
f 75/92/97 76/94/97 25/93/97 23/91/97
f 78/96/93 77/95/99 76/94/98 75/92/99
f 70/80/93 78/96/93 75/92/93 74/90/93
f 71/81/101 79/97/100 78/96/81 70/80/100
f 79/97/104 80/98/102 77/95/103 78/96/102
f 58/100/107 60/99/106 80/98/105 79/97/106
f 56/82/109 58/100/108 79/97/110 71/81/108
f 84/104/111 83/103/111 82/102/111 81/101/111
f 83/103/114 76/106/112 77/105/113 82/102/112
f 24/108/115 25/107/115 76/106/115 83/103/115
f 21/109/116 24/108/116 83/103/116 84/104/116
f 45/113/118 86/112/117 85/111/111 43/110/117
f 86/112/111 84/104/111 81/101/111 85/111/111
f 20/114/116 21/109/116 84/104/116 86/112/116
f 19/115/119 20/114/119 86/112/119 45/113/119
f 42/119/116 87/118/116 65/117/116 41/116/116
f 87/118/120 88/121/120 62/120/120 65/117/120
f 85/111/123 81/101/122 88/121/121 87/118/122
f 43/110/123 85/111/123 87/118/123 42/119/123
f 88/121/124 89/123/124 61/122/124 62/120/124
f 89/123/116 80/125/116 60/124/116 61/122/116
f 82/102/123 77/105/123 80/125/123 89/123/123
f 81/101/126 82/102/125 89/123/127 88/121/125
f 55/129/128 91/128/128 90/127/128 46/126/128
f 91/128/131 93/131/129 92/130/130 90/127/129
f 69/133/132 66/132/132 93/131/132 91/128/132
f 52/134/133 69/133/133 91/128/133 55/129/133
f 49/138/133 94/137/133 32/136/133 34/135/133
f 94/137/132 95/140/132 28/139/132 32/136/132
f 90/127/135 92/130/134 95/140/132 94/137/134
f 46/126/136 90/127/136 94/137/136 49/138/136
f 95/140/139 96/142/137 26/141/138 28/139/137
f 96/142/140 10/144/140 12/143/140 26/141/140
f 97/146/133 5/145/133 10/144/133 96/142/133
f 92/130/139 97/146/139 96/142/139 95/140/139
f 93/131/139 98/147/139 97/146/139 92/130/139
f 98/147/133 2/148/133 5/145/133 97/146/133
f 73/150/141 1/149/141 2/148/141 98/147/141
f 66/132/143 73/150/142 98/147/144 93/131/142

