# ProBuilder 4.0.5
# https://unity3d.com/unity/features/worldbuilding/probuilder
# 1/27/2020 12:45:17 PM

mtllib ./pushpin.mtl
o pushpin

g pushpin
v -0.007 2.980232E-08 0.3
v -0.0035 0.00606221 0.3
v 0 0 0
v 0 2.980232E-08 0.3
v 0.003500001 0.00606221 0.3
v 0.007 2.980232E-08 0.3
v 0.003500001 -0.00606215 0.3
v -0.003499999 -0.00606215 0.3
v 0.01051462 0.01701303 0.31
v 0.01618034 0.01000001 0.3161803
v 0.006180341 0.01618036 0.32
v 0.01701301 1.490116E-08 0.3205146
v 0.01 0.006180355 0.3261803
v 9.313226E-10 0.01051464 0.327013
v 9.313226E-10 0.02000001 0.31
v -0.006180339 0.01618036 0.32
v -0.01051462 0.01701303 0.31
v 0.006180341 0.01618036 0.3
v -0.006180339 0.01618036 0.3
v 9.313226E-10 0.01051464 0.292987
v 0.01618034 0.01000001 0.3038197
v 0.01 0.006180355 0.2938197
v 0.01701301 1.490116E-08 0.2994854
v 0.02 1.490116E-08 0.31
v -0.01618034 0.01000001 0.3161803
v -0.009999999 0.006180355 0.3261803
v -0.01701301 1.490116E-08 0.3205146
v 9.313226E-10 1.490116E-08 0.33
v 0.01 -0.006180326 0.3261803
v 9.313226E-10 -0.01051461 0.327013
v 0.01618034 -0.009999985 0.3161803
v 0.01618034 -0.009999985 0.3038197
v 0.01051462 -0.017013 0.31
v 0.01 -0.006180326 0.2938197
v 9.313226E-10 1.490116E-08 0.29
v 9.313226E-10 -0.01051461 0.292987
v -0.009999999 0.006180355 0.2938197
v -0.01618034 0.01000001 0.3038197
v -0.01701301 1.490116E-08 0.2994854
v -0.01051462 -0.017013 0.31
v -0.01618034 -0.009999985 0.3161803
v -0.006180339 -0.01618033 0.32
v -0.009999999 -0.006180326 0.3261803
v 9.313226E-10 -0.01999998 0.31
v 0.006180341 -0.01618033 0.32
v -0.006180339 -0.01618033 0.3
v 0.006180341 -0.01618033 0.3
v -0.01618034 -0.009999985 0.3038197
v -0.009999999 -0.006180326 0.2938197
v -0.02 1.490116E-08 0.31

vt 0.2732342 -0.5209457
vt 0.3731566 -0.5180292
vt 0.2466674 0.483417
vt -0.1 -0.01999998
vt -0.05 0.06660256
vt -1.117587E-08 -0.01999998
vt -0.03078408 -0.1982018
vt 0.06907076 -0.1943946
vt -0.01914337 0.8078915
vt 0.05 0.06660256
vt -0.3348056 -0.5215255
vt -0.23504 -0.5168297
vt -0.2850394 0.4869133
vt 0.05000001 0.06660256
vt 0.09999999 -0.02
vt -0.3465972 -0.5281757
vt -0.2466744 -0.5252591
vt -0.3731637 0.4761871
vt 0.05 -0.1066025
vt -0.03078406 -0.1973936
vt 0.06907077 -0.1935864
vt -0.01914332 0.8086996
vt 0.04999999 -0.1066025
vt -0.05 -0.1066025
vt 0.2850258 -0.5287555
vt 0.3847919 -0.5240595
vt 0.3347914 0.4796833
vt -0.09999999 -0.01999997
vt -0.01051462 0
vt -0.01618034 0.00618034
vt -0.00618034 0.01
vt -0.00618034 0.03
vt -0.01051462 0.02
vt -0.01618034 0.02618034
vt 0.01618034 0.03
vt 0.01 0.02618034
vt 0.00618034 0.03618034
vt 0 0.03051462
vt 0 0
vt 0 0.01701302
vt 0.00618034 0.01
vt 0.01051462 0
vt -0.00618034 -0.01
vt 0.00618034 -0.01
vt 0 -0.01701302
vt -0.01618034 -0.00618034
vt -0.00618034 0.03618034
vt -0.01 0.02618034
vt -0.01 -0.01618034
vt 0.00618034 0.03
vt 0.01618034 0.02618034
vt 0.01051462 0.02
vt 0 0.03701302
vt 0 0.02
vt 0.01618034 0.00618034
vt 0.01 0.01618034
vt 0.01701302 0.02
vt 0.01 0.01381966
vt 0 0.009485378
vt 0 0.002986984
vt -0.01701302 0.02
vt -0.01 0.01381966
vt 0.01618034 -0.00618034
vt 0.01 -0.01618034
vt 0.01618034 0.01381966
vt -0.01618034 0.01
vt -0.00618034 0.003819659
vt 0.00618034 0.003819659
vt -0.01618034 0.01381966

vn -0.6621899 -1.139622E-08 0.749336
vn -0.331095 0.5734733 0.749336
vn 4.917112E-07 -4.917112E-07 -1
vn 0 0 1
vn 0.331095 0.5734733 0.749336
vn 0.66219 0 0.749336
vn 0.331095 -0.5734732 0.749336
vn -0.331095 -0.5734733 0.7493361
vn 0.525731 0.8506509 0
vn 0.8090169 0.4999999 0.3090172
vn 0.3090169 0.8090171 0.5
vn 0.8506507 0 0.5257313
vn 0.5000002 0.3090171 0.8090168
vn 0 0.5257317 0.8506504
vn 0 1 -5.281821E-09
vn -0.3090168 0.8090171 0.5
vn -0.525731 0.8506509 0
vn 0.3090169 0.8090171 -0.5
vn -0.3090168 0.8090171 -0.5000001
vn 6.317248E-09 0.5257317 -0.8506504
vn 0.8090169 0.4999999 -0.3090172
vn 0.5000002 0.3090172 -0.8090168
vn 0.8506507 0 -0.5257313
vn 1 1.056364E-08 0
vn -0.8090169 0.5 0.3090172
vn -0.5000002 0.3090171 0.8090168
vn -0.8506507 0 0.5257313
vn 0.5000002 -0.3090171 0.8090168
vn 0 -0.5257317 0.8506504
vn 0.8090169 -0.5 0.3090172
vn 0.8090169 -0.5 -0.3090172
vn 0.525731 -0.8506509 0
vn 0.5000002 -0.3090171 -0.8090168
vn 0 -0.5257317 -0.8506504
vn -0.5000002 0.3090171 -0.8090168
vn -0.8090169 0.5 -0.3090172
vn -0.8506507 0 -0.5257313
vn -0.525731 -0.8506509 6.317249E-09
vn -0.8090169 -0.5 0.3090172
vn -0.3090168 -0.8090171 0.5
vn -0.5000002 -0.3090171 0.8090168
vn 0 -1 -1.056364E-08
vn 0.3090169 -0.8090171 0.4999999
vn -0.3090168 -0.8090171 -0.5
vn 0.3090169 -0.8090171 -0.5
vn -0.8090169 -0.5 -0.3090172
vn -0.5000002 -0.3090171 -0.8090168
vn -1 -1.056364E-08 0

g pushpin
usemtl ProBuilderDefault
f 1/1/1 2/2/2 3/3/3
f 4/6/4 2/5/2 1/4/1
f 2/7/2 5/8/5 3/9/3
f 4/6/4 5/10/5 2/5/2
f 5/11/5 6/12/6 3/13/3
f 4/6/4 6/15/6 5/14/5
f 6/16/6 7/17/7 3/18/3
f 4/6/4 7/19/7 6/15/6
f 7/20/7 8/21/8 3/22/3
f 4/6/4 8/24/8 7/23/7
f 8/25/8 1/26/1 3/27/3
f 4/6/4 1/28/1 8/24/8
f 11/31/11 10/30/10 9/29/9
f 13/34/13 12/33/12 10/32/10
f 11/37/11 13/36/13 10/35/10
f 14/38/14 13/36/13 11/37/11
f 15/39/15 11/31/11 9/29/9
f 16/41/16 14/40/14 11/31/11
f 15/39/15 16/41/16 11/31/11
f 17/42/17 16/41/16 15/39/15
f 18/43/18 15/39/15 9/29/9
f 19/44/19 17/42/17 15/39/15
f 18/43/18 19/44/19 15/39/15
f 20/45/20 19/44/19 18/43/18
f 21/46/21 18/43/18 9/29/9
f 22/48/22 20/38/20 18/47/18
f 21/46/21 22/49/22 18/43/18
f 23/52/23 22/51/22 21/50/21
f 10/32/10 21/50/21 9/53/9
f 24/54/24 23/52/23 21/50/21
f 10/32/10 24/54/24 21/50/21
f 12/33/12 24/54/24 10/32/10
f 25/55/25 16/41/16 17/42/17
f 26/48/26 14/38/14 16/47/16
f 25/55/25 26/56/26 16/41/16
f 27/52/27 26/51/26 25/50/25
f 28/54/4 13/36/13 14/38/14
f 29/58/28 12/57/12 13/36/13
f 28/54/4 29/58/28 13/36/13
f 30/59/29 29/58/28 28/54/4
f 31/31/30 24/54/24 12/33/12
f 32/41/31 23/52/23 24/54/24
f 31/31/30 32/41/31 24/54/24
f 33/60/32 32/41/31 31/31/30
f 34/62/33 22/48/22 23/61/23
f 35/54/3 20/38/20 22/48/22
f 34/62/33 35/54/3 22/48/22
f 36/59/34 35/54/3 34/62/33
f 37/36/35 19/37/19 20/38/20
f 38/63/36 17/42/17 19/44/19
f 37/64/35 38/63/36 19/44/19
f 39/33/37 38/32/36 37/34/35
f 42/31/40 41/30/39 40/29/38
f 43/65/41 27/52/27 41/41/39
f 42/67/40 43/62/41 41/66/39
f 30/59/29 43/62/41 42/67/40
f 44/39/42 42/31/40 40/29/38
f 45/41/43 30/40/29 42/31/40
f 44/39/42 45/41/43 42/31/40
f 33/42/32 45/41/43 44/39/42
f 46/43/44 44/39/42 40/29/38
f 47/44/45 33/42/32 44/39/42
f 46/43/44 47/44/45 44/39/42
f 36/45/34 47/44/45 46/43/44
f 48/46/46 46/43/44 40/29/38
f 49/58/47 36/59/34 46/68/44
f 48/46/46 49/49/47 46/43/44
f 39/33/37 49/69/47 48/31/46
f 41/41/39 48/31/46 40/60/38
f 50/54/48 39/33/37 48/31/46
f 41/41/39 50/54/48 48/31/46
f 27/52/27 50/54/48 41/41/39
f 28/54/4 43/62/41 30/59/29
f 26/48/26 27/61/27 43/62/41
f 28/54/4 26/48/26 43/62/41
f 14/38/14 26/48/26 28/54/4
f 31/55/30 45/41/43 33/42/32
f 29/58/28 30/59/29 45/68/43
f 31/55/30 29/56/28 45/41/43
f 12/33/12 29/69/28 31/31/30
f 34/62/33 47/67/45 36/59/34
f 32/63/31 33/42/32 47/44/45
f 34/64/33 32/63/31 47/44/45
f 23/52/23 32/41/31 34/65/33
f 37/36/35 49/58/47 39/57/37
f 35/54/3 36/59/34 49/58/47
f 37/36/35 35/54/3 49/58/47
f 20/38/20 35/54/3 37/36/35
f 25/50/25 50/54/48 27/52/27
f 38/32/36 39/33/37 50/54/48
f 25/50/25 38/32/36 50/54/48
f 17/53/17 38/32/36 25/50/25

