# ProBuilder 4.0.5
# https://unity3d.com/unity/features/worldbuilding/probuilder
# 1/27/2020 1:02:06 PM

mtllib ./pushpin2.mtl
o pushpin2

g Cone-Merged
v -0.02 2.235174E-08 0.25
v -0.009999999 0.01732053 0.25
v 0 0 0
v 0 2.235174E-08 0.25
v 0.01 0.01732053 0.25
v 0.02 2.235174E-08 0.25
v 0.009999999 -0.01732048 0.25
v -0.009999999 -0.01732048 0.25
v 0.02628656 0.04253255 0.285
v 0.04045085 0.02500001 0.3004508
v 0.01545085 0.04045086 0.31
v 0.04253254 7.450581E-09 0.3112865
v 0.025 0.01545085 0.3254508
v 1.490116E-09 0.02628656 0.3275325
v 1.490116E-09 0.05000001 0.285
v -0.01545085 0.04045086 0.31
v -0.02628655 0.04253255 0.285
v 0.01545085 0.04045086 0.26
v -0.01545085 0.04045086 0.26
v 1.490116E-09 0.02628656 0.2424674
v 0.04045085 0.02500001 0.2695491
v 0.025 0.01545085 0.2445491
v 0.04253254 7.450581E-09 0.2587134
v 0.05 7.450581E-09 0.285
v -0.04045085 0.02500001 0.3004508
v -0.025 0.01545085 0.3254508
v -0.04253254 7.450581E-09 0.3112865
v 1.490116E-09 7.450581E-09 0.335
v 0.025 -0.01545084 0.3254508
v 1.490116E-09 -0.02628655 0.3275325
v 0.04045085 -0.02499999 0.3004508
v 0.04045085 -0.02499999 0.2695491
v 0.02628656 -0.04253253 0.285
v 0.025 -0.01545084 0.2445491
v 1.490116E-09 7.450581E-09 0.235
v 1.490116E-09 -0.02628655 0.2424674
v -0.025 0.01545085 0.2445491
v -0.04045085 0.02500001 0.2695491
v -0.04253254 7.450581E-09 0.2587134
v -0.02628655 -0.04253253 0.285
v -0.04045085 -0.02499999 0.3004508
v -0.01545085 -0.04045084 0.31
v -0.025 -0.01545084 0.3254508
v 1.490116E-09 -0.04999999 0.285
v 0.01545085 -0.04045084 0.31
v -0.01545085 -0.04045084 0.26
v 0.01545085 -0.04045084 0.26
v -0.04045085 -0.02499999 0.2695491
v -0.025 -0.01545084 0.2445491
v -0.05 7.450581E-09 0.285

vt 0.238798 -0.2944086
vt 0.338734 -0.2909482
vt 0.2294209 0.2137856
vt -0.1 -0.04999996
vt -0.05 0.0366026
vt -7.450581E-09 -0.04999996
vt -0.03497831 0.01624756
vt 0.06468181 0.02206759
vt -0.01485178 0.5277875
vt 0.04999999 0.0366026
vt -0.3087706 -0.2963773
vt -0.2095729 -0.2882322
vt -0.2595731 0.2192123
vt 0.05000001 0.03660259
vt 0.09999999 -0.04999997
vt -0.3293869 -0.3170817
vt -0.2294507 -0.3136213
vt -0.3387637 0.1911125
vt 0.1 -0.04999996
vt 0.04999998 -0.1366025
vt -0.03497827 0.02315922
vt 0.06468181 0.02897926
vt -0.01485175 0.5346991
vt -0.05 -0.1366025
vt 0.2594141 -0.3190504
vt 0.3586116 -0.3109053
vt 0.3086115 0.1965393
vt -0.05 -0.1366025
vt -0.02628656 0
vt -0.04045085 0.01545085
vt -0.01545085 0.025
vt -0.01545085 0.075
vt -0.02628656 0.05
vt -0.04045085 0.06545085
vt 0.04045085 0.075
vt 0.025 0.06545085
vt 0.01545085 0.09045085
vt 0 0.07628655
vt 0 0
vt 0 0.04253254
vt 0.01545085 0.025
vt 0.02628656 0
vt -0.01545085 -0.025
vt 0.01545085 -0.025
vt 0 -0.04253254
vt -0.04045085 -0.01545085
vt -0.01545085 0.09045085
vt -0.025 0.06545085
vt -0.04045085 0.075
vt 0.01545085 0.075
vt 0.04045085 0.06545085
vt 0.02628656 0.05
vt 0 0.09253255
vt 0 0.05
vt 0.04045085 0.01545085
vt 0.04253254 0.05
vt 0.025 0.03454915
vt 0 0.02371345
vt 0 0.00746746
vt -0.04253254 0.05
vt -0.025 0.03454915
vt 0.04045085 -0.01545085
vt 0.04045085 0.03454915
vt -0.04045085 0.025
vt -0.01545085 0.009549148
vt 0.01545085 0.009549148
vt 0.04045085 0.025
vt -0.04045085 0.03454915

vn -0.6802661 -3.519892E-08 0.7329652
vn -0.3401331 0.5891277 0.7329652
vn -1.437302E-07 -8.623813E-07 -1
vn 0 0 1
vn 0.3401331 0.5891277 0.7329652
vn 0.6802661 -8.213082E-08 0.7329653
vn 0.340133 -0.5891277 0.7329653
vn -0.340133 -0.5891277 0.7329653
vn 0.5257311 0.8506508 0
vn 0.8090171 0.4999999 0.309017
vn 0.3090171 0.8090169 0.5000002
vn 0.8506508 -1.26345E-08 0.5257311
vn 0.5000002 0.3090169 0.8090169
vn 0 0.525731 0.8506508
vn 0 1 5.28182E-09
vn -0.309017 0.8090169 0.5000002
vn -0.5257311 0.8506508 0
vn 0.309017 0.8090169 -0.5000001
vn -0.309017 0.8090169 -0.5000001
vn -6.317248E-09 0.525731 -0.8506509
vn 0.8090171 0.4999999 -0.309017
vn 0.5000001 0.309017 -0.8090169
vn 0.850651 -6.317249E-09 -0.5257309
vn 1 -2.112728E-08 0
vn -0.8090171 0.4999999 0.309017
vn -0.5000002 0.3090169 0.8090169
vn -0.8506508 -3.158624E-09 0.5257311
vn 0.5000002 -0.309017 0.8090169
vn 0 -0.5257311 0.8506508
vn 0.8090171 -0.4999999 0.309017
vn 0.8090171 -0.4999999 -0.3090169
vn 0.5257312 -0.8506508 0
vn 0.5000001 -0.309017 -0.8090169
vn 0 -0.525731 -0.8506509
vn -0.5000001 0.309017 -0.8090169
vn -0.8090171 0.4999999 -0.309017
vn -0.8506509 -3.158624E-09 -0.5257309
vn -0.5257311 -0.8506508 -6.317249E-09
vn -0.8090171 -0.4999999 0.309017
vn -0.3090171 -0.8090169 0.5000001
vn -0.5000002 -0.3090169 0.8090169
vn 0 -1 -5.28182E-09
vn 0.3090171 -0.8090169 0.5000001
vn -0.309017 -0.8090169 -0.5000001
vn 0.3090171 -0.8090169 -0.5000001
vn -0.8090171 -0.4999999 -0.3090169
vn -0.5000001 -0.309017 -0.8090169
vn -1 -1.056364E-08 0

g Cone-Merged
usemtl ProBuilderDefault
f 1/1/1 2/2/2 3/3/3
f 4/6/4 2/5/2 1/4/1
f 2/7/2 5/8/5 3/9/3
f 4/6/4 5/10/5 2/5/2
f 5/11/5 6/12/6 3/13/3
f 4/6/4 6/15/6 5/14/5
f 6/16/6 7/17/7 3/18/3
f 4/6/4 7/20/7 6/19/6
f 7/21/7 8/22/8 3/23/3
f 4/6/4 8/24/8 7/20/7
f 8/25/8 1/26/1 3/27/3
f 4/6/4 1/4/1 8/28/8
f 11/31/11 10/30/10 9/29/9
f 13/34/13 12/33/12 10/32/10
f 11/37/11 13/36/13 10/35/10
f 14/38/14 13/36/13 11/37/11
f 15/39/15 11/31/11 9/29/9
f 16/41/16 14/40/14 11/31/11
f 15/39/15 16/41/16 11/31/11
f 17/42/17 16/41/16 15/39/15
f 18/43/18 15/39/15 9/29/9
f 19/44/19 17/42/17 15/39/15
f 18/43/18 19/44/19 15/39/15
f 20/45/20 19/44/19 18/43/18
f 21/46/21 18/43/18 9/29/9
f 22/48/22 20/38/20 18/47/18
f 21/49/21 22/48/22 18/47/18
f 23/52/23 22/51/22 21/50/21
f 10/32/10 21/50/21 9/53/9
f 24/54/24 23/52/23 21/50/21
f 10/32/10 24/54/24 21/50/21
f 12/33/12 24/54/24 10/32/10
f 25/55/25 16/41/16 17/42/17
f 26/48/26 14/38/14 16/47/16
f 25/49/25 26/48/26 16/47/16
f 27/52/27 26/51/26 25/50/25
f 28/54/4 13/36/13 14/38/14
f 29/57/28 12/56/12 13/36/13
f 28/54/4 29/57/28 13/36/13
f 30/58/29 29/57/28 28/54/4
f 31/31/30 24/54/24 12/33/12
f 32/41/31 23/52/23 24/54/24
f 31/31/30 32/41/31 24/54/24
f 33/59/32 32/41/31 31/31/30
f 34/61/33 22/48/22 23/60/23
f 35/54/3 20/38/20 22/48/22
f 34/61/33 35/54/3 22/48/22
f 36/58/34 35/54/3 34/61/33
f 37/36/35 19/37/19 20/38/20
f 38/62/36 17/42/17 19/44/19
f 37/36/35 38/35/36 19/37/19
f 39/33/37 38/32/36 37/34/35
f 42/31/40 41/30/39 40/29/38
f 43/63/41 27/52/27 41/41/39
f 42/65/40 43/61/41 41/64/39
f 30/58/29 43/61/41 42/65/40
f 44/39/42 42/31/40 40/29/38
f 45/41/43 30/40/29 42/31/40
f 44/39/42 45/41/43 42/31/40
f 33/42/32 45/41/43 44/39/42
f 46/43/44 44/39/42 40/29/38
f 47/44/45 33/42/32 44/39/42
f 46/43/44 47/44/45 44/39/42
f 36/45/34 47/44/45 46/43/44
f 48/46/46 46/43/44 40/29/38
f 49/57/47 36/58/34 46/66/44
f 48/67/46 49/57/47 46/66/44
f 39/33/37 49/68/47 48/31/46
f 41/41/39 48/31/46 40/59/38
f 50/54/48 39/33/37 48/31/46
f 41/41/39 50/54/48 48/31/46
f 27/52/27 50/54/48 41/41/39
f 28/54/4 43/61/41 30/58/29
f 26/48/26 27/60/27 43/61/41
f 28/54/4 26/48/26 43/61/41
f 14/38/14 26/48/26 28/54/4
f 31/55/30 45/41/43 33/42/32
f 29/57/28 30/58/29 45/66/43
f 31/67/30 29/57/28 45/66/43
f 12/33/12 29/68/28 31/31/30
f 34/61/33 47/65/45 36/58/34
f 32/62/31 33/42/32 47/44/45
f 34/61/33 32/64/31 47/65/45
f 23/52/23 32/41/31 34/63/33
f 37/36/35 49/57/47 39/56/37
f 35/54/3 36/58/34 49/57/47
f 37/36/35 35/54/3 49/57/47
f 20/38/20 35/54/3 37/36/35
f 25/50/25 50/54/48 27/52/27
f 38/32/36 39/33/37 50/54/48
f 25/50/25 38/32/36 50/54/48
f 17/53/17 38/32/36 25/50/25

