<?xml version="1.0" encoding="utf-8"?>
<svg viewBox="0 0 500 500" xmlns="http://www.w3.org/2000/svg" xmlns:bx="https://boxy-svg.com">
  <path style="fill: rgb(255, 255, 255);" transform="matrix(-0.688026, 0.688026, -0.688026, -0.688026, 607.897034, 184.078506)" d="M 287.832 47.362 L 328.161 47.362 L 336.671 108.958 A 107.134 107.134 0 0 1 360.711 118.916 L 410.284 81.379 L 438.801 109.896 L 401.264 159.469 A 107.134 107.134 0 0 1 411.221 183.508 L 472.818 192.019 L 472.818 232.348 L 411.221 240.859 A 107.134 107.134 0 0 1 401.264 264.898 L 438.801 314.472 L 410.284 342.989 L 360.711 305.451 A 107.134 107.134 0 0 1 336.671 315.409 L 328.161 377.005 L 287.832 377.005 L 279.321 315.409 A 107.134 107.134 0 0 1 255.281 305.451 L 205.708 342.989 L 177.191 314.472 L 214.728 264.898 A 107.134 107.134 0 0 1 204.771 240.859 L 143.174 232.348 L 143.174 192.019 L 204.771 183.508 A 107.134 107.134 0 0 1 214.728 159.469 L 177.191 109.896 L 205.708 81.379 L 255.281 118.916 A 107.134 107.134 0 0 1 279.321 108.958 Z M 307.996 162.737 A 49.446 49.446 0 0 0 307.996 261.63 A 49.446 49.446 0 0 0 307.996 162.737" bx:shape="cog 307.996 212.184 49.446 107.134 164.822 0.38 8 1@6da805d9"/>
</svg>