<?xml version="1.0" encoding="utf-8"?>
<svg viewBox="0 0 24 24" xmlns="http://www.w3.org/2000/svg">
  <path d="M 11.783 1.894 C 7.923 1.894 4.783 5.034 4.783 8.894 C 4.783 14.144 11.783 21.894 11.783 21.894 C 11.783 21.894 18.783 14.144 18.783 8.894 C 18.783 5.034 15.643 1.894 11.783 1.894 Z M 12.663 15.644 L 10.913 15.644 L 10.913 13.894 L 12.663 13.894 L 12.663 15.644 Z M 12.663 12.774 L 10.913 12.774 C 10.913 9.934 13.533 10.154 13.533 8.394 C 13.533 7.434 12.743 6.644 11.783 6.644 C 10.823 6.644 10.033 7.434 10.033 8.394 L 8.283 8.394 C 8.283 6.464 9.853 4.894 11.783 4.894 C 13.713 4.894 15.283 6.464 15.283 8.394 C 15.283 10.584 12.663 10.804 12.663 12.774 Z" style="fill: rgb(255, 255, 255);"/>
</svg>