<?xml version="1.0" encoding="utf-8"?>
<svg viewBox="0 0 500 500" xmlns="http://www.w3.org/2000/svg" xmlns:bx="https://boxy-svg.com">
  <defs>
    <bx:grid x="184.326" y="164.985" width="100" height="100"/>
  </defs>
  <circle style="stroke-width: 10px; fill: none; stroke: rgb(255, 255, 255);" cx="250" cy="250" r="230"/>
  <path d="M 123.777 64.985 C 139.894 57.743 139.411 72.151 156.664 72.151 C 159.357 72.151 181.943 72.998 184.326 75.382 C 185.006 76.061 173.253 93.691 176.499 96.937 C 180.792 101.231 199.739 89.452 197.057 100.063 C 192.73 117.182 173.66 122.447 158.815 130.222 C 151.798 133.897 135.212 150.065 136.354 154.633 C 137.084 157.551 140.888 162.533 138.41 164.985 C 137.628 165.758 133.977 165.286 133.303 164.985 C 129.399 163.241 130.888 159.555 127.407 158.391 C 115.099 154.273 100.859 153.814 93.33 164.985 C 90.323 169.446 82.672 179.308 84.326 185.923 C 86.256 193.643 89.864 194.495 93.363 199.221 C 97.887 205.333 93.629 204.568 101.629 209.901 C 107.738 213.974 114.552 218.566 120.272 216.006 C 124.026 214.325 131.437 220.541 135.401 221.356 C 144.309 223.186 151.643 227.168 160.214 230.024 C 162.678 230.846 164.604 243.188 168.207 245.89 C 172.132 248.834 196.633 253.896 199.652 256.915 C 200.492 257.755 203.65 274.149 203.76 274.37 C 204.398 275.646 199.623 281.787 198.564 282.488 C 192.37 286.587 188.982 290.425 184.326 296.589 C 172.019 312.879 171.064 308.158 168.846 328.861 C 166.789 348.063 148.554 381.588 151.9 401.331 C 153.23 409.184 155.688 416.981 156.915 424.845 C 157.241 426.934 162.876 435.91 161.249 435.893 C 160.194 435.881 146.544 423.757 145.981 423.194 C 140.716 417.929 131.253 385.813 125.591 374.489 C 117.85 359.006 121.858 347.297 109.942 333.691 C 107.317 330.693 96.807 303.219 95.33 302.848 C 88.619 301.161 64.176 279.234 62.236 275.258 C 57.223 264.985 54.403 258.048 59.012 251.085 C 61.466 247.377 64.929 238.246 67.451 235.546 C 72.315 230.339 87.55 225.397 89.221 222.017 C 92.023 216.351 97.653 214.876 95.12 209.81 C 93.879 207.328 90.627 205.971 89.627 202.982 C 87.865 197.716 80.8 196.273 77.2 190.423 C 74.84 186.59 72.957 188.89 68.963 186.893 C 62.871 183.847 62.498 178.12 62.498 179.961 C 62.498 181.862 65.853 187.526 64.139 188.348 C 61.049 189.829 57.209 184.881 55.594 181.652 C 51.747 173.957 49.786 174.993 45.905 167.231 C 41.098 157.616 51.589 140.213 56.178 134.061 C 63.971 123.613 72.393 109.055 81.329 100.07 C 88.474 92.886 97.213 82.235 106.021 77.783 C 109.034 76.26 120.054 64.985 123.396 64.985" style="fill: rgb(255, 255, 255); stroke: rgb(219, 219, 219); stroke-width: 4px;"/>
  <path d="M 333.306 93.2 C 331.676 93.324 324.602 93.092 326.094 96.075 C 326.827 97.541 326.183 99.495 327.001 100.545 C 328.258 102.158 329.593 99.403 330.765 99.436 C 332.663 99.49 332.897 93.154 331.66 91.916 C 330.703 90.959 333.23 89.088 331.982 87.841 C 330.752 86.61 330.967 87.346 329.745 86.125 C 328.592 84.972 330.625 80.669 332.921 81.817 C 336.556 83.635 334.833 87.191 336.815 90.163 C 338.62 92.872 338.94 95.422 341.013 94.27 C 342.985 93.175 343.03 98.403 343.03 101.123 C 343.03 103.339 341.12 103.168 339.401 104.023 C 338.284 104.578 334.029 109.427 334.029 108.18 C 334.029 106.99 337.81 103.102 334.277 101.939 C 332.36 101.308 333.284 99.219 334.49 98.423 C 336.073 97.379 331.485 96.018 331.485 93.068" style="fill: rgb(255, 255, 255); stroke: rgb(219, 219, 219); stroke-width: 4px;"/>
  <path d="M 455.94 159.667 C 455.462 162.837 446.243 135.633 431.88 115.945 C 422.209 102.69 404.659 87.648 393.233 75.364 C 378.539 59.565 354.278 48.597 354.278 51.367 C 354.278 53.98 347.129 86.377 348.474 89.067 C 354.004 100.129 362.306 86.026 362.306 79.024 C 362.306 78.327 362.289 80.563 361.793 81.054 C 361.417 81.425 360.654 83.527 361.109 84.436 C 361.837 85.893 365.067 88.928 365.067 87.3 C 365.067 84.948 359.609 84.326 364.201 82.005 C 364.291 81.96 371.966 89.311 370.12 91.137 C 368.187 93.049 362.927 92.36 360.665 94.597 C 358.645 96.595 355.637 102.361 353.757 103.291 C 353.242 103.545 351.385 102.484 350.446 102.949 C 345.852 105.22 337.113 111.517 333.819 114.775 C 332.243 116.334 329.383 121.708 330.398 124.753 C 331.002 126.565 337.769 132.463 334.964 135.238 C 330.14 140.008 314.203 140.703 320.197 152.691 C 320.963 154.222 321.169 156.2 322.057 157.088 C 324.024 159.055 331.262 156.478 332.994 155.869 C 342.184 152.64 351.641 145.914 355.526 138.057 C 356.119 136.858 362.248 132.637 363.543 133.285 C 367.509 135.267 371.316 142.55 373.585 144.819 C 375.361 146.595 370.212 152.031 372.091 152.971 C 374.881 154.365 377.704 148.297 378.451 147.542 C 378.572 147.42 378.061 143.817 377.402 143.157 C 374.511 140.265 376.601 138.365 373.565 135.329 C 368.782 130.545 377.862 123.747 382.186 124.916 C 384.652 125.583 390.545 125.79 392.385 127.63 C 396.404 131.649 394.531 141.105 398.928 145.501 C 402.633 149.206 415.533 151.328 420.245 152.504 C 433.715 155.863 441.996 159.632 455.738 159.632" style="fill: rgb(255, 255, 255); stroke: rgb(219, 219, 219); stroke-width: 4px; paint-order: fill;"/>
  <path d="M 458.659 169.225 C 450.049 171.452 438.942 167.032 430.004 164.985 C 422.75 163.323 405.98 167.408 392.94 165.949 C 384.326 164.985 372.231 157.851 369.483 158.76 C 364.667 160.354 349.687 157.02 344.423 157.891 C 336.208 159.25 325.376 163.704 324.728 164.985 C 321.83 170.717 313.655 184.627 310.815 190.246 C 307.626 196.555 309.592 231.482 314.544 235.795 C 317.331 238.222 327.434 267.156 340.355 270.386 C 351.279 273.117 367.154 271.681 377.355 267.758 C 378.801 267.202 390.099 260.07 392.214 262.185 C 393.525 263.496 398.085 263.15 399.543 264.608 C 402.887 267.952 407.145 271.881 410.881 275.617 C 413.236 277.972 416.438 280.549 417.989 283.473 C 425.017 296.715 422.927 312.452 421.384 326.854 C 420.883 331.534 419.382 336.627 420.139 341.481 C 421.835 352.348 428.903 366.818 435.777 373.692 C 436.134 374.048 440.323 364.315 440.462 363.701 C 441.87 357.511 447.172 354.287 449.966 348.639 C 456.028 336.384 457.091 321.386 459.375 307.579 C 460.231 302.401 458.855 296.695 460.016 291.588 C 462.846 279.141 467.774 266.369 469.317 253.566 C 471.394 236.327 468.193 217.926 466.369 200.878 C 465.723 194.835 463.317 188.724 462.263 182.715 C 461.991 181.17 462.18 177.243 461.188 176.251 C 460.111 175.174 457.94 169.533 457.94 167.374" style="fill: rgb(255, 255, 255); stroke: rgb(219, 219, 219); stroke-width: 4px;"/>
</svg>