<?xml version="1.0" encoding="utf-8"?>
<svg viewBox="0 0 500 500" xmlns="http://www.w3.org/2000/svg">
  <g transform="matrix(1.073765, 0, 0, 1, -14.652682, -57.437672)">
    <path style="fill: rgb(255, 255, 255);" d="M 22.843 398.558 C 22.497 337.642 47.678 291.594 79.255 278.183 C 85.1 280.943 91.632 282.487 98.525 282.487 C 105.342 282.487 111.808 280.976 117.604 278.272 C 124.379 281.18 131.113 285.687 137.652 291.939 C 146.567 300.463 154.235 311.611 160.359 324.573 C 149.754 345.294 142.133 370.594 138.863 399.203 L 99.794 400 Z"/>
    <circle style="fill: rgb(255, 255, 255);" cx="98.763" cy="233.322" r="45.526"/>
  </g>
  <g transform="matrix(1.073765, 0, 0, 1, -28.988934, -53.810177)">
    <path style="fill: rgb(255, 255, 255);" d="M 381.468 270.045 C 387.703 272.991 394.672 274.637 402.025 274.637 C 409.298 274.637 416.195 273.026 422.379 270.141 C 429.606 273.242 436.79 278.051 443.765 284.72 C 468.687 308.55 484.475 351.599 485.43 398.326 L 403.379 400 L 366.238 399.304 C 361.654 368.109 351.792 339.507 337.861 316.794 C 348.79 293.792 364.236 277.364 381.468 270.045 Z"/>
    <circle style="fill: rgb(255, 255, 255);" cx="402.279" cy="222.188" r="48.568"/>
  </g>
  <g transform="matrix(1, 0, 0, 1, -2.670609, -42.504501)">
    <circle style="stroke-width: 0px; fill: rgb(255, 255, 255);" cx="251.297" cy="210.462" r="61.501"/>
    <path style="stroke-width: 0px; fill: rgb(255, 255, 255);" d="M 148.747 434.099 C 148.279 351.809 182.296 289.604 224.953 271.487 C 232.849 275.216 241.673 277.301 250.984 277.301 C 260.194 277.301 268.928 275.261 276.758 271.608 C 285.91 275.535 295.006 281.624 303.84 290.07 C 335.399 320.246 355.39 374.757 356.599 433.928 L 252.699 436.048 Z"/>
  </g>
</svg>