<?xml version="1.0" encoding="utf-8"?>
<svg viewBox="0 0 500 500" xmlns="http://www.w3.org/2000/svg" xmlns:bx="https://boxy-svg.com">
  <path style="fill: rgb(255, 255, 255);" d="M 10.314 450 C 178.93 360.482 450 409.082 489.921 450" transform=""/>
  <path d="M 311.605 186.381 L 316.541 200.581 L 331.571 200.887 L 319.592 209.97 L 323.945 224.36 L 311.605 215.773 L 299.265 224.36 L 303.618 209.97 L 291.639 200.887 L 306.669 200.581 Z" style="fill: rgb(255, 255, 255);" transform="matrix(-0.720833, 0.693109, -0.693109, -0.720833, 548.909573, -14.372052)" bx:shape="star 311.605 207.375 20.994 20.994 0.4 5 1@e125e2d8"/>
  <path d="M 541.184 517.876 L 546.772 533.953 L 563.79 534.3 L 550.226 544.583 L 555.155 560.875 L 541.184 551.153 L 527.213 560.875 L 532.142 544.583 L 518.578 534.3 L 535.596 533.953 Z" style="fill: rgb(255, 255, 255);" transform="matrix(-0.780869, 0.624695, -0.624695, -0.780869, 997.851222, 314.016804)" bx:shape="star 541.184 541.645 23.769 23.769 0.4 5 1@a48ca4bc"/>
  <path d="M 682.375 589.055 L 687.245 603.066 L 702.076 603.369 L 690.255 612.331 L 694.551 626.529 L 682.375 618.056 L 670.199 626.529 L 674.495 612.331 L 662.674 603.369 L 677.505 603.066 Z" style="fill: rgb(255, 255, 255);" transform="matrix(-0.613941, 0.789352, -0.789352, -0.613941, 1277.451594, -72.200862)" bx:shape="star 682.375 609.77 20.715 20.715 0.4 5 1@6dfee0ae"/>
  <path d="M 1030.313 547.194 L 1035.57 562.319 L 1051.58 562.645 L 1038.82 572.319 L 1043.456 587.645 L 1030.313 578.499 L 1017.17 587.645 L 1021.806 572.319 L 1009.046 562.645 L 1025.056 562.319 Z" style="fill: rgb(255, 255, 255);" transform="matrix(-0.549991, 0.835171, -0.835171, -0.549991, 1411.966336, -244.479433)" bx:shape="star 1030.313 569.555 22.361 22.361 0.4 5 1@81c4a04d"/>
  <path d="M 1086.902 758.496 L 1092.043 773.287 L 1107.699 773.606 L 1095.221 783.066 L 1099.755 798.054 L 1086.902 789.11 L 1074.049 798.054 L 1078.583 783.066 L 1066.105 773.606 L 1081.761 773.287 Z" style="fill: rgb(255, 255, 255);" transform="matrix(-0.83205, 0.5547, -0.5547, -0.83205, 1790.717473, 216.66597)" bx:shape="star 1086.902 780.363 21.867 21.867 0.4 5 1@1389c397"/>
  <path d="M 690.91 818.089 L 696.748 834.883 L 714.524 835.245 L 700.356 845.987 L 705.504 863.005 L 690.91 852.85 L 676.316 863.005 L 681.464 845.987 L 667.296 835.245 L 685.072 834.883 Z" style="fill: rgb(255, 255, 255);" transform="matrix(-0.475693, 0.879611, -0.879611, -0.475693, 1172.453058, 143.426959)" bx:shape="star 690.91 842.918 24.829 24.829 0.4 5 1@e411abfb"/>
  <path d="M 408.082 335.261 L 413.843 351.833 L 431.384 352.191 L 417.403 362.79 L 422.483 379.584 L 408.082 369.562 L 393.681 379.584 L 398.761 362.79 L 384.78 352.191 L 402.321 351.833 Z" style="fill: rgb(255, 255, 255);" transform="matrix(-0.752577, 0.658505, -0.658505, -0.752577, 620.889262, 126.888514)" bx:shape="star 408.082 359.762 24.501 24.501 0.4 5 1@2b911696"/>
  <rect x="11.327" y="450" width="478.28" height="40.374" style="fill: rgb(255, 255, 255);"/>
</svg>