<?xml version="1.0" encoding="utf-8"?>
<svg viewBox="0 0 24 24" xmlns="http://www.w3.org/2000/svg">
  <path d="M 12.005 6.5 C 14.765 6.5 17.005 8.74 17.005 11.5 C 17.005 12.15 16.875 12.76 16.645 13.33 L 19.565 16.25 C 21.075 14.99 22.265 13.36 22.995 11.5 C 21.265 7.11 16.995 4 11.995 4 C 10.595 4 9.255 4.25 8.015 4.7 L 10.175 6.86 C 10.745 6.63 11.355 6.5 12.005 6.5 Z M 2.005 3.77 L 4.285 6.05 L 4.745 6.51 C 3.085 7.8 1.785 9.52 1.005 11.5 C 2.735 15.89 7.005 19 12.005 19 C 13.555 19 15.035 18.7 16.385 18.16 L 16.805 18.58 L 19.735 21.5 L 21.005 20.23 L 3.275 2.5 L 2.005 3.77 Z M 7.535 9.3 L 9.085 10.85 C 9.035 11.06 9.005 11.28 9.005 11.5 C 9.005 13.16 10.345 14.5 12.005 14.5 C 12.225 14.5 12.445 14.47 12.655 14.42 L 14.205 15.97 C 13.535 16.3 12.795 16.5 12.005 16.5 C 9.245 16.5 7.005 14.26 7.005 11.5 C 7.005 10.71 7.205 9.97 7.535 9.3 Z M 11.845 8.52 L 14.995 11.67 L 15.015 11.51 C 15.015 9.85 13.675 8.51 12.015 8.51 L 11.845 8.52 Z" style="fill: rgb(255, 255, 255);"/>
</svg>