<?xml version="1.0" encoding="utf-8"?>
<svg viewBox="0 0 500 500" xmlns="http://www.w3.org/2000/svg" xmlns:bx="https://boxy-svg.com">
  <defs>
    <bx:grid x="0" y="0" width="100.822" height="101.028"/>
  </defs>
  <g transform="matrix(0.121869, -0.992546, 0.992546, 0.121869, -38.355145, 457.991089)">
    <rect style="fill: rgb(255, 255, 255);" x="17.889" y="336.095" width="214.794" height="84.024" rx="8" ry="8" transform="matrix(0.639342, -0.768923, 0.768924, 0.639341, -247.185165, 244.783112)" bx:origin="0.502857 0.5"/>
    <rect style="fill: rgb(255, 255, 255);" x="380.774" y="336.095" width="214.794" height="84.024" rx="8" ry="8" transform="matrix(0.639342, -0.768923, 0.768924, 0.639341, -247.185165, 244.783112)" bx:origin="0.502857 0.5"/>
    <path d="M 183.367 111.148 L 281.559 111.148 C 288.337 111.148 293.832 118.672 293.833 127.954 L 293.833 361.121 C 293.834 370.403 288.338 377.926 281.559 377.926 C 281.559 377.926 257.23 370.105 233.702 369.841 C 209.869 369.574 183.368 377.926 183.368 377.926 C 176.589 377.926 171.094 370.403 171.094 361.121 L 171.093 127.954 C 171.093 118.672 176.589 111.148 183.367 111.148 Z" style="fill: rgb(255, 255, 255);" transform="matrix(0.639342, -0.768922, 0.768922, 0.639342, -104.19036, 266.940168)"/>
    <ellipse style="fill: rgb(255, 255, 255);" cx="250" cy="310" rx="49.096" ry="21.006" transform="matrix(0.639342, -0.768923, 0.768924, 0.639341, -48.636772, 335.93881)" bx:origin="0.5 0.4"/>
    <path style="stroke: rgb(0, 0, 0); stroke-width: 0px; fill: rgb(255, 255, 255);" d="M 369.211 349.973 L 373.99 382.745 L 379.52 349.989 L 369.211 349.973 Z" transform="matrix(0.639342, -0.768922, 0.768922, 0.639342, -146.683776, 419.988213)"/>
    <circle style="fill: rgb(255, 255, 255);" cx="247.317" cy="339.799" r="3.476" transform="matrix(0.784723, -0.94377, 1.292158, 1.074397, -247.185165, 244.783112)"/>
    <line style="stroke: rgb(255, 255, 255); stroke-width: 8px;" x1="13.081" y1="377.973" x2="204.554" y2="377.973" transform="matrix(0.639342, -0.768922, 0.768922, 0.639342, -251.385991, 219.991114)"/>
    <line style="stroke: rgb(255, 255, 255); stroke-width: 8px;" x1="45.052" y1="404.556" x2="236.524" y2="404.556" transform="matrix(0.639342, -0.768922, 0.768922, 0.639342, -260.295852, 254.16131)"/>
    <line style="stroke: rgb(255, 255, 255); stroke-width: 8px;" x1="29.067" y1="391.265" x2="220.539" y2="391.265" transform="matrix(0.639342, -0.768922, 0.768922, 0.639342, -255.841231, 237.07659)"/>
    <line style="stroke: rgb(255, 255, 255); stroke-width: 8px;" x1="242.121" y1="98.83" x2="434.821" y2="98.83" transform="matrix(0.639342, -0.768922, 0.768922, 0.639342, 46.079612, 295.901725)"/>
    <line style="stroke: rgb(255, 255, 255); stroke-width: 8px;" x1="274.092" y1="125.412" x2="466.792" y2="125.412" transform="matrix(0.639342, -0.768922, 0.768922, 0.639342, 37.170706, 330.071942)"/>
    <line style="stroke: rgb(255, 255, 255); stroke-width: 8px;" x1="258.106" y1="112.121" x2="450.807" y2="112.121" transform="matrix(0.639342, -0.768922, 0.768922, 0.639342, 41.625157, 312.986828)"/>
    <line style="stroke-width: 4px; stroke: rgb(222, 222, 222);" x1="86.71" y1="409.409" x2="86.71" y2="459.822" transform="matrix(0.639342, -0.768922, 0.768922, 0.639342, -302.912919, 223.420719)"/>
    <line style="stroke-width: 4px; stroke: rgb(222, 222, 222);" x1="122.022" y1="366.938" x2="122.023" y2="417.353" transform="matrix(0.639342, -0.768922, 0.768922, 0.639342, -257.521058, 235.256155)"/>
    <line style="stroke-width: 4px; stroke: rgb(222, 222, 222);" x1="157.335" y1="324.468" x2="157.335" y2="374.883" transform="matrix(0.639342, -0.768922, 0.768922, 0.639342, -212.129196, 247.091591)"/>
    <line style="stroke-width: 4px; stroke: rgb(222, 222, 222);" x1="322.127" y1="126.278" x2="322.127" y2="176.691" transform="matrix(0.639342, -0.768922, 0.768922, 0.639342, -0.302194, 302.324718)"/>
    <line style="stroke-width: 4px; stroke: rgb(222, 222, 222);" x1="357.439" y1="83.807" x2="357.44" y2="134.222" transform="matrix(0.639342, -0.768922, 0.768922, 0.639342, 45.089659, 314.16014)"/>
    <line style="stroke-width: 4px; stroke: rgb(222, 222, 222);" x1="392.752" y1="41.337" x2="392.752" y2="91.752" transform="matrix(0.639342, -0.768922, 0.768922, 0.639342, 90.481523, 325.995585)"/>
    <path style="fill: none; stroke-width: 3px; stroke: rgb(255, 255, 255);" d="M 379.865 398.266 C 396.127 398.266 407.432 382.56 401.841 367.733"/>
    <path style="fill: none; stroke-width: 3px; stroke: rgb(255, 255, 255);" d="M 380.428 414.528 C 406.67 414.528 424.912 388.165 415.891 363.276"/>
    <path style="fill: none; stroke-width: 3px; stroke: rgb(255, 255, 255);" d="M 379.865 434.645 C 418.145 434.645 444.757 396.78 431.596 361.034"/>
  </g>
</svg>